<svg width="127" height="28" viewBox="0 0 127 28" fill="none" xmlns="http://www.w3.org/2000/svg">
<g clip-path="url(#clip0_128_11509)">
<mask id="mask0_128_11509" style="mask-type:luminance" maskUnits="userSpaceOnUse" x="43" y="-17" width="78" height="45">
<path d="M121 -17H43V28H121V-17Z" fill="white"/>
</mask>
<g mask="url(#mask0_128_11509)">
<path d="M49.989 4.91041H45.3001V0.67627H43.2354V11.1706H45.3001V6.90577H49.989V11.1706H52.0557V0.67627H49.989V4.91041Z" fill="#172E49"/>
<path d="M64.6708 2.16537C64.1709 1.66701 63.5982 1.27407 62.9546 0.988474C62.3091 0.702875 61.6196 0.561035 60.8879 0.561035C60.1562 0.561035 59.4533 0.704792 58.8078 0.988474C58.1623 1.27216 57.5954 1.66509 57.105 2.16537C56.6166 2.66373 56.2335 3.23684 55.9596 3.8828C55.6838 4.53066 55.5459 5.21495 55.5459 5.93757C55.5459 6.6602 55.6838 7.37323 55.9596 8.01919C56.2354 8.66514 56.6166 9.2325 57.105 9.72319C57.5954 10.2139 58.1623 10.5953 58.8078 10.8713C59.4533 11.1474 60.1466 11.2834 60.8879 11.2834C61.6291 11.2834 62.3072 11.1454 62.9546 10.8713C63.6001 10.5953 64.1728 10.2139 64.6708 9.72319C65.1688 9.23442 65.5576 8.66705 65.8391 8.01919C66.1207 7.37323 66.2586 6.67936 66.2586 5.93757C66.2586 5.19578 66.1188 4.53066 65.8391 3.8828C65.5595 3.23684 65.1688 2.66373 64.6708 2.16537ZM63.8797 7.24098C63.7169 7.64542 63.4947 8.00194 63.2093 8.31053C62.9239 8.62105 62.5907 8.86065 62.2057 9.03124C61.8207 9.20375 61.4031 9.28808 60.9588 9.28808C60.5144 9.28808 60.0624 9.20183 59.6697 9.03124C59.2751 8.86065 58.9285 8.62105 58.6297 8.31053C58.3309 8.00194 58.0972 7.64542 57.9325 7.24098C57.7639 6.83846 57.6815 6.40335 57.6815 5.93757C57.6815 5.4718 57.762 5.01944 57.9248 4.61117C58.0857 4.2029 58.3136 3.84446 58.6086 3.53586C58.9036 3.22726 59.2445 2.98766 59.6333 2.81707C60.0221 2.64648 60.4454 2.56023 60.9013 2.56023C61.3572 2.56023 61.7805 2.64648 62.1693 2.81707C62.5581 2.98958 62.899 3.22918 63.1883 3.53586C63.4775 3.84446 63.7054 4.20481 63.8721 4.61117C64.0387 5.02136 64.1211 5.46221 64.1211 5.93757C64.1211 6.41293 64.0406 6.83846 63.8778 7.24098" fill="#172E49"/>
<path d="M76.2126 6.66426C76.5018 6.31349 76.7106 5.92247 76.8389 5.49503C76.9672 5.06759 77.0323 4.63823 77.0323 4.21079C77.0323 3.66835 76.9423 3.1834 76.7623 2.75021C76.5822 2.31702 76.3198 1.94709 75.9731 1.63849C75.6265 1.32989 75.1955 1.09221 74.6822 0.925449C74.1689 0.760607 73.5847 0.67627 72.9296 0.67627H69.7539V11.1706H71.8187V7.83349H73.1939L75.4081 11.1706H77.8157L75.3641 7.34088C75.6954 7.15112 75.9904 6.93452 76.2145 6.66426M71.8187 2.67163H73.2993C73.6613 2.67163 73.9486 2.73296 74.1612 2.85755C74.3738 2.98214 74.5328 3.13357 74.6381 3.31374C74.7435 3.49392 74.8105 3.67218 74.845 3.84852C74.8775 4.02487 74.8967 4.17054 74.8967 4.28363C74.8967 4.43505 74.8699 4.5999 74.8182 4.77624C74.7645 4.95258 74.6783 5.12126 74.5615 5.28227C74.4428 5.44519 74.278 5.57745 74.0693 5.68287C73.8605 5.78638 73.6 5.84005 73.2859 5.84005H71.8187V2.67354V2.67163Z" fill="#172E49"/>
<path d="M83.014 0.67627H80.9492V11.1706H83.014V0.67627Z" fill="#172E49"/>
<path d="M106.514 2.16537C106.014 1.66701 105.441 1.27407 104.797 0.988474C104.15 0.702875 103.462 0.561035 102.731 0.561035C101.999 0.561035 101.296 0.704792 100.649 0.988474C100.003 1.27407 99.4362 1.66509 98.9478 2.16537C98.4575 2.66373 98.0763 3.23684 97.8005 3.8828C97.5247 4.53066 97.3887 5.21495 97.3887 5.93757C97.3887 6.6602 97.5247 7.37323 97.8005 8.01919C98.0763 8.66514 98.4575 9.2325 98.9478 9.72319C99.4362 10.2139 100.003 10.5953 100.649 10.8713C101.296 11.1474 101.989 11.2834 102.731 11.2834C103.472 11.2834 104.15 11.1454 104.797 10.8713C105.441 10.5953 106.014 10.2139 106.514 9.72319C107.012 9.23442 107.4 8.66705 107.682 8.01919C107.962 7.37323 108.101 6.67936 108.101 5.93757C108.101 5.19578 107.962 4.53066 107.682 3.8828C107.4 3.23684 107.012 2.66373 106.514 2.16537ZM105.722 7.24098C105.562 7.64542 105.337 8.00194 105.052 8.31053C104.769 8.62105 104.433 8.86065 104.048 9.03124C103.663 9.20375 103.248 9.28808 102.802 9.28808C102.355 9.28808 101.905 9.20183 101.512 9.03124C101.118 8.86065 100.771 8.62105 100.472 8.31053C100.174 8.00194 99.94 7.64542 99.7733 7.24098C99.6067 6.83846 99.5243 6.40335 99.5243 5.93757C99.5243 5.4718 99.6048 5.01944 99.7676 4.61117C99.9285 4.2029 100.156 3.84446 100.451 3.53586C100.744 3.22726 101.087 2.98766 101.476 2.81707C101.867 2.64648 102.288 2.56023 102.746 2.56023C103.204 2.56023 103.623 2.64648 104.014 2.81707C104.401 2.98958 104.742 3.22918 105.031 3.53586C105.32 3.84446 105.55 4.20481 105.715 4.61117C105.881 5.02136 105.966 5.46221 105.966 5.93757C105.966 6.41293 105.883 6.83846 105.722 7.24098Z" fill="#172E49"/>
<path d="M120.381 11.598H120.437V0.67623H118.357L118.399 6.99965L111.076 0.262207H110.992V11.1705H113.086L113.045 4.96596L120.381 11.598Z" fill="#172E49"/>
<path d="M49.6636 25.7322C49.269 25.9124 48.794 26.0024 48.2424 26.0024C47.7635 26.0024 47.3326 25.9219 46.9533 25.759C46.5722 25.598 46.2466 25.3661 45.9746 25.0671C45.7026 24.768 45.4938 24.4096 45.3463 23.9917C45.2008 23.5739 45.128 23.1139 45.128 22.6078C45.128 22.1344 45.2065 21.6935 45.3674 21.2891C45.5264 20.8847 45.7447 20.532 46.0225 20.2272C46.2983 19.9224 46.6182 19.6867 46.9802 19.5218C47.3422 19.3551 47.7195 19.2727 48.1141 19.2727C48.6216 19.2727 49.0698 19.3704 49.4587 19.564C49.8494 19.7595 50.1616 19.9474 50.3953 20.1275L51.1978 18.1744C50.8588 17.9558 50.4221 17.7507 49.8877 17.561C49.3533 17.3712 48.7366 17.2754 48.0413 17.2754C47.2904 17.2754 46.6047 17.4096 45.9861 17.676C45.3655 17.9424 44.833 18.3162 44.3867 18.8011C43.9405 19.288 43.5995 19.8611 43.3582 20.5262C43.1188 21.1933 43 21.9255 43 22.7228C43 23.4359 43.1168 24.1068 43.3505 24.7335C43.5861 25.3622 43.927 25.9162 44.3733 26.403C44.8177 26.888 45.3636 27.2694 46.0071 27.5512C46.6507 27.831 47.3805 27.9805 48.1983 27.9997C48.7346 28.0093 49.2231 27.9518 49.6636 27.8272C50.1041 27.7045 50.4796 27.5608 50.7841 27.4017C51.0906 27.2388 51.2974 27.1123 51.4123 27.0164L50.5677 25.1629C50.3608 25.3622 50.0601 25.552 49.6655 25.7341" fill="#172E49"/>
<path d="M62.545 23.3786C62.8304 23.0278 63.0372 22.6368 63.1656 22.2093C63.292 21.7819 63.3552 21.3545 63.3552 20.9251C63.3552 20.3846 63.2652 19.8977 63.087 19.4645C62.907 19.0313 62.6484 18.6614 62.3036 18.3528C61.9608 18.0442 61.5356 17.8065 61.028 17.6379C60.5204 17.473 59.9439 17.3887 59.2965 17.3887H56.1553V27.883H58.199V24.5459H59.5608L61.7501 27.883H64.1309L61.706 24.0533C62.0336 23.8635 62.3266 23.6469 62.545 23.3767M58.199 19.3859H59.6642C60.0224 19.3859 60.304 19.4473 60.5166 19.57C60.7273 19.6945 60.8843 19.846 60.9878 20.0261C61.0931 20.2082 61.1602 20.3865 61.1927 20.5609C61.2253 20.7373 61.2425 20.881 61.2425 20.996C61.2425 21.1475 61.2157 21.3123 61.1659 21.4867C61.1142 21.6631 61.028 21.8317 60.9112 21.9928C60.7943 22.1538 60.6315 22.2879 60.4247 22.3914C60.2178 22.4949 59.9592 22.5486 59.6489 22.5486H58.199V19.384V19.3859Z" fill="#172E49"/>
<path d="M74.1555 24.0073C74.1555 24.3408 74.0578 24.659 73.8663 24.9619C73.6728 25.2647 73.4123 25.512 73.0848 25.7037C72.7553 25.8934 72.3799 25.9873 71.9585 25.9873C71.5736 25.9873 71.2192 25.8934 70.8955 25.7037C70.5699 25.512 70.3113 25.2647 70.1121 24.9619C69.9148 24.6571 69.8171 24.3389 69.8171 24.0073V17.3906H67.7734V24.0495C67.7734 24.82 67.9611 25.5005 68.3366 26.0966C68.712 26.6908 69.2176 27.1566 69.8497 27.492C70.4856 27.8313 71.1866 27.9999 71.9566 27.9999C72.7266 27.9999 73.4449 27.8313 74.0827 27.492C74.7224 27.1546 75.23 26.6889 75.6035 26.0966C75.9789 25.5024 76.1685 24.82 76.1685 24.0495V17.3906H74.1536V24.0073H74.1555Z" fill="#172E49"/>
<path d="M82.9763 17.3906H80.9326V27.8849H82.9763V17.3906Z" fill="#172E49"/>
<path d="M91.7674 19.1731C92.1236 19.1731 92.5067 19.2441 92.9147 19.3878C93.3246 19.5316 93.7249 19.7118 94.1195 19.9283L94.8933 18.347C94.4795 18.071 94.0141 17.8333 93.4931 17.634C92.9721 17.4346 92.2922 17.335 91.4571 17.335C90.8193 17.3637 90.2542 17.5075 89.7658 17.7701C89.2774 18.0307 88.9001 18.3854 88.6319 18.832C88.3657 19.2786 88.2297 19.8076 88.2297 20.4152C88.2297 20.9193 88.3216 21.3448 88.5055 21.6918C88.6894 22.0387 88.9269 22.3281 89.2237 22.562C89.5206 22.7958 89.8367 22.9933 90.1738 23.1524C90.5128 23.3153 90.8422 23.4571 91.1621 23.5798C91.4341 23.6852 91.685 23.8079 91.9149 23.9497C92.1447 24.0935 92.3267 24.2487 92.4646 24.4193C92.5986 24.5918 92.6695 24.7816 92.6695 24.9905C92.6695 25.2953 92.5872 25.533 92.4224 25.7036C92.2577 25.8761 92.0508 25.9949 91.8018 26.0678C91.5528 26.1387 91.3058 26.1732 91.0625 26.1732C90.8193 26.1732 90.5511 26.1348 90.2581 26.0582C89.9688 25.9834 89.6796 25.8761 89.3923 25.7381C89.105 25.6001 88.8407 25.441 88.5955 25.2608L87.6934 26.8728C88.0592 27.1297 88.4404 27.3405 88.8349 27.5053C89.2295 27.6721 89.6317 27.7967 90.0397 27.8753C90.4477 27.9558 90.8499 27.9979 91.2445 27.9979C92.0145 27.9979 92.6619 27.858 93.1886 27.5763C93.7134 27.2964 94.1118 26.9284 94.3857 26.4722C94.6577 26.016 94.7937 25.5215 94.7937 24.9886C94.7937 24.4845 94.7228 24.059 94.583 23.7121C94.4412 23.3651 94.2535 23.0757 94.0179 22.8418C93.7843 22.6099 93.518 22.4144 93.2231 22.2572C92.9281 22.1 92.6293 21.964 92.3286 21.849C92.0011 21.7263 91.6831 21.5883 91.3786 21.4368C91.0721 21.2854 90.825 21.111 90.6316 20.9174C90.4381 20.7219 90.3423 20.5015 90.3423 20.2542C90.3423 19.8919 90.4687 19.6236 90.7216 19.4415C90.9763 19.2613 91.323 19.1712 91.7655 19.1712" fill="#172E49"/>
<path d="M102.839 23.622H107.292V21.6248H102.839V19.3879H107.868V17.3906H100.797V27.8849H108.066V25.8877H102.839V23.622Z" fill="#172E49"/>
<path d="M120.126 22.8437C119.889 22.6099 119.624 22.4144 119.33 22.2591C119.033 22.1019 118.734 21.9678 118.435 21.8528C118.106 21.7301 117.788 21.5921 117.485 21.4387C117.179 21.2873 116.93 21.1129 116.736 20.9174C116.545 20.7238 116.449 20.5014 116.449 20.2542C116.449 19.8938 116.573 19.6235 116.828 19.4415C117.083 19.2613 117.429 19.1712 117.872 19.1712C118.226 19.1712 118.611 19.2421 119.019 19.3859C119.427 19.5277 119.829 19.7098 120.222 19.9283L120.998 18.3451C120.584 18.069 120.119 17.8314 119.596 17.632C119.075 17.4327 118.397 17.333 117.562 17.333C116.922 17.3618 116.359 17.5074 115.872 17.7681C115.384 18.0288 115.005 18.3834 114.736 18.83C114.468 19.2766 114.334 19.8056 114.334 20.4133C114.334 20.9174 114.426 21.3429 114.61 21.6898C114.794 22.0368 115.031 22.3262 115.328 22.56C115.623 22.7939 115.941 22.9913 116.278 23.1523C116.617 23.3152 116.947 23.4571 117.265 23.5798C117.537 23.6833 117.788 23.8079 118.019 23.9497C118.249 24.0935 118.433 24.2487 118.569 24.4212C118.703 24.5918 118.772 24.7835 118.772 24.9905C118.772 25.2953 118.69 25.5329 118.525 25.7035C118.362 25.8741 118.153 25.9949 117.906 26.0677C117.657 26.1386 117.41 26.1732 117.167 26.1732C116.924 26.1732 116.656 26.1348 116.363 26.0581C116.071 25.9834 115.784 25.8761 115.499 25.738C115.21 25.6 114.945 25.4409 114.7 25.2608L113.8 26.8728C114.166 27.1296 114.545 27.3405 114.941 27.5072C115.336 27.674 115.736 27.7967 116.146 27.8772C116.554 27.9577 116.956 27.9998 117.349 27.9998C118.119 27.9998 118.768 27.8599 119.295 27.5781C119.82 27.2983 120.22 26.9303 120.492 26.4741C120.764 26.016 120.9 25.5234 120.9 24.9905C120.9 24.4864 120.829 24.0609 120.688 23.7139C120.548 23.367 120.36 23.0776 120.126 22.8456" fill="#172E49"/>
<path d="M95.3436 0.664515H87.2549V2.65987H89.3025C89.335 2.66179 89.3676 2.67137 89.4001 2.67137H91.7599C91.5741 2.96464 91.396 3.25024 91.2293 3.51283C90.9573 3.94027 90.6547 4.42522 90.3176 4.96766C89.9805 5.51011 89.6338 6.06597 89.2776 6.63525C89.2354 6.70234 89.1971 6.76367 89.155 6.83076L86.4141 11.1588L86.5137 11.0457C86.4868 11.0879 86.4619 11.1262 86.437 11.1684H94.5276V9.17114H89.9862L95.3704 0.674098H95.3416L95.3474 0.662598" fill="#172E49"/>
</g>
</g>
<path d="M16.0601 11.7549V16.3904C9.01587 17.22 2.90372 21.5835 0.0716984 28H5.68645C8.00315 24.541 11.7672 22.1835 16.0601 21.532V28H20.9444V21.532C25.2373 22.1835 29.0058 24.541 31.318 28H36.9328C34.1008 21.5835 27.9886 17.22 20.9444 16.3904V11.7549C28.011 10.9253 34.1814 6.44928 37 0H31.4121C29.1089 3.53867 25.2955 5.95246 20.9444 6.61332V0H16.0601V6.61332C11.709 5.95246 7.89561 3.53867 5.59235 0H0C2.81858 6.45397 8.98898 10.9253 16.0601 11.7549Z" fill="#3AA7CD"/>
<defs>
<clipPath id="clip0_128_11509">
<rect width="90" height="28" fill="white" transform="translate(37)"/>
</clipPath>
</defs>
</svg>
