<svg viewBox="0 0 17 18" fill="none" xmlns="http://www.w3.org/2000/svg">
<g id="Frame">
<g id="Group">
<path id="Vector" fill-rule="evenodd" clip-rule="evenodd" d="M0.53125 3.49696H8.44797C8.41276 3.32564 8.39467 3.15124 8.39395 2.97634L8.39402 2.96143C8.39418 2.78444 8.41211 2.60791 8.44754 2.4345H0.53125C0.237768 2.4345 0 2.67223 0 2.96575C0 3.25926 0.237734 3.49703 0.53125 3.49696ZM7.61756 8.99852V9.00516C7.61484 9.91443 6.87285 10.6541 5.96395 10.6541C5.05587 10.654 4.31385 9.9152 4.30996 9.00669L4.31 8.99736C4.31113 8.0865 5.05272 7.3461 5.96395 7.3461C6.87441 7.34607 7.6156 8.08613 7.61756 8.9962V8.99852ZM16.4688 8.46883H8.55239C8.58775 8.64163 8.60572 8.81753 8.60605 8.99391V9.00819C8.60558 9.18394 8.58755 9.3592 8.55223 9.53137L16.4688 9.53133C16.7623 9.53133 17 9.29363 17 9.00012C17 8.70657 16.7623 8.46883 16.4688 8.46883ZM3.3751 8.46883H0.53125C0.237768 8.46883 0 8.7066 0 9.00012C0 9.2936 0.237734 9.53137 0.53125 9.53137L3.37553 9.53133C3.34031 9.36 3.32221 9.18559 3.32151 9.01068L3.32154 8.99577C3.3217 8.81877 3.33964 8.64224 3.3751 8.46883ZM11.0361 16.6884C10.1256 16.6884 9.3844 15.9484 9.38244 15.0383V15.0294C9.38519 14.12 10.1272 13.3804 11.036 13.3804C11.9442 13.3804 12.6861 14.1193 12.69 15.0278L12.69 15.0371C12.6889 15.9479 11.9472 16.6884 11.0361 16.6884ZM16.4688 14.5032H13.6248C13.6602 14.676 13.6782 14.8518 13.6785 15.0282V15.0425C13.678 15.2182 13.66 15.3935 13.6246 15.5656H16.4688C16.7623 15.5656 17 15.3279 17 15.0344C17 14.7409 16.7623 14.5032 16.4688 14.5032ZM8.44754 14.5032H0.53125C0.237768 14.5032 0 14.7409 0 15.0345C0 15.328 0.237734 15.5657 0.53125 15.5657H8.44797C8.41276 15.3944 8.39467 15.2199 8.39395 15.045L8.39402 15.0301C8.39418 14.8531 8.41211 14.6766 8.44754 14.5032ZM9.38244 2.96731V2.96067C9.38519 2.05137 10.1272 1.31177 11.036 1.31177C11.9442 1.31173 12.6861 2.05064 12.69 2.95914L12.69 2.96844C12.6884 3.8789 11.9472 4.61973 11.036 4.61973C10.1256 4.61973 9.38437 3.87966 9.38244 2.96963V2.96731ZM13.6247 3.49703L16.4688 3.49696C16.7623 3.49696 17 3.25926 17 2.96575C17 2.6722 16.7623 2.4345 16.4688 2.4345H13.6248C13.6602 2.60728 13.6782 2.78317 13.6785 2.95954V2.97382C13.678 3.14958 13.66 3.32486 13.6247 3.49703Z" fill="#172E49"/>
</g>
</g>
</svg>
