<svg viewBox="0 0 31 30" fill="none" xmlns="http://www.w3.org/2000/svg">
<g clip-path="url(#clip0_196_7819)">
<path d="M22.6085 0H8.39142C3.76431 0 0 3.64288 0 8.12073V21.8794C0 26.3571 3.76431 29.9999 8.39142 29.9999H22.6088C27.2356 29.9999 30.9999 26.3571 30.9999 21.8794V8.12073C30.9999 3.64288 27.2356 0 22.6085 0ZM29.1826 21.8794C29.1826 25.3873 26.2335 28.2412 22.6085 28.2412H8.39142C4.76642 28.2412 1.81737 25.3873 1.81737 21.8794V8.12073C1.81737 4.61267 4.76642 1.75875 8.39142 1.75875H22.6088C26.2335 1.75875 29.1826 4.61267 29.1826 8.12073V21.8794Z" fill="white"/>
<path d="M15.4998 6.79701C10.8258 6.79701 7.02344 10.4767 7.02344 14.9999C7.02344 19.5231 10.8258 23.2028 15.4998 23.2028C20.1737 23.2028 23.9761 19.5231 23.9761 14.9999C23.9761 10.4767 20.1737 6.79701 15.4998 6.79701ZM15.4998 21.444C11.8282 21.444 8.84081 18.5533 8.84081 14.9999C8.84081 11.4468 11.8282 8.55576 15.4998 8.55576C19.1716 8.55576 22.1587 11.4468 22.1587 14.9999C22.1587 18.5533 19.1716 21.444 15.4998 21.444ZM24.1788 3.88379C22.7975 3.88379 21.6741 4.97123 21.6741 6.30764C21.6741 7.64434 22.7975 8.73172 24.1788 8.73172C25.56 8.73172 26.6836 7.64434 26.6836 6.3077C26.6836 4.97105 25.56 3.88379 24.1788 3.88379ZM24.1788 6.97279C23.7999 6.97279 23.4915 6.67432 23.4915 6.30764C23.4915 5.94078 23.7999 5.64254 24.1788 5.64254C24.5579 5.64254 24.8663 5.94078 24.8663 6.30764C24.8663 6.67432 24.5579 6.97279 24.1788 6.97279Z" fill="white"/>
</g>
<defs>
<clipPath id="clip0_196_7819">
<rect width="31" height="30" fill="white"/>
</clipPath>
</defs>
</svg>
