<svg viewBox="0 0 14 8" fill="none" xmlns="http://www.w3.org/2000/svg">
<path d="M7.38418 7.62118L13.8417 1.14577C14.0531 0.933608 14.0528 0.590117 13.8406 0.378314C13.6284 0.166674 13.2847 0.167221 13.0731 0.379407L6.99998 6.46938L0.926845 0.379188C0.715204 0.167029 0.371741 0.166482 0.159554 0.378094C0.10892 0.428471 0.0687551 0.488368 0.0413723 0.554336C0.0139894 0.620304 -7.05925e-05 0.691038 3.79097e-06 0.762464C-8.49038e-05 0.833631 0.0138654 0.904116 0.0410556 0.969885C0.0682459 1.03565 0.108142 1.09541 0.158461 1.14574L6.6158 7.62118C6.71746 7.72336 6.85582 7.7807 6.99998 7.7807C7.14413 7.7807 7.28233 7.7232 7.38418 7.62118Z" />
</svg>
