<svg viewBox="0 0 31 31" fill="none" xmlns="http://www.w3.org/2000/svg">
<g clip-path="url(#clip0_196_7812)">
<path d="M30.5254 3.33223C30.147 2.8677 29.5791 2.61182 28.9262 2.61182C28.5739 2.61182 28.2007 2.68557 27.8169 2.83094L1.5716 12.7749C0.176127 13.3038 -0.011696 14.0998 0.000534937 14.5272C0.0127053 14.9525 0.243458 15.7308 1.64808 16.1801L7.21405 18.2198L10.1475 24.9345C10.4424 25.8632 11.0585 26.5147 11.8449 26.726C12.0252 26.7745 12.2111 26.7989 12.3977 26.7988C13.0364 26.7988 13.6903 26.5175 14.2551 25.9871L16.6854 23.7038L22.6153 27.7853C23.1493 28.18 23.7304 28.3884 24.297 28.3883C25.4471 28.3882 26.3643 27.5464 26.6339 26.2435L30.9262 5.48342C31.1026 4.63022 30.9603 3.86627 30.5254 3.33223ZM9.05868 17.9046L16.6328 13.843L11.3542 18.685C11.2617 18.7701 11.188 18.8734 11.1375 18.9884C11.0871 19.1035 11.0611 19.2277 11.0612 19.3533C11.0609 19.3627 11.0597 19.3718 11.0596 19.3811L11.0414 22.4432L9.05868 17.9046ZM13.0114 24.6631C12.9585 24.713 12.9025 24.7595 12.8438 24.8023L12.866 21.0748L15.1542 22.6498L13.0114 24.6631ZM29.1474 5.11558L24.855 25.8756C24.8117 26.0849 24.6707 26.5718 24.2969 26.5718C24.1223 26.5718 23.9058 26.482 23.6872 26.3187C23.6779 26.3117 23.6684 26.3049 23.6587 26.2983L17.1213 21.7986L17.1186 21.7968L13.4225 19.2527L23.1863 10.2965C23.3494 10.147 23.4522 9.94301 23.4755 9.72297C23.4988 9.50294 23.441 9.28196 23.313 9.10153C23.1849 8.9211 22.9954 8.79362 22.78 8.74304C22.5646 8.69246 22.3381 8.72225 22.1431 8.82682L7.82057 16.5075L2.25448 14.4678C2.25041 14.4662 2.24634 14.4648 2.24224 14.4633L28.4606 4.52959C28.6815 4.44585 28.8357 4.42829 28.9262 4.42829C28.971 4.42829 29.0794 4.43326 29.1168 4.47927C29.1649 4.53819 29.2253 4.73854 29.1474 5.11558Z" fill="white"/>
</g>
<defs>
<clipPath id="clip0_196_7812">
<rect width="31" height="31" fill="white"/>
</clipPath>
</defs>
</svg>
